<svg xmlns="http://www.w3.org/2000/svg" viewBox="0 0 32 32" width="32" height="32">
  <!-- Background -->
  <rect width="32" height="32" rx="2" fill="#fff" stroke="#333" stroke-width="0.8"/>
  <!-- Top-left finder pattern -->
  <rect x="3" y="3" width="9" height="9" fill="#000"/>
  <rect x="4" y="4" width="7" height="7" fill="#fff"/>
  <rect x="5.5" y="5.5" width="4" height="4" fill="#000"/>
  <!-- Top-right finder pattern -->
  <rect x="20" y="3" width="9" height="9" fill="#000"/>
  <rect x="21" y="4" width="7" height="7" fill="#fff"/>
  <rect x="22.5" y="5.5" width="4" height="4" fill="#000"/>
  <!-- Bottom-left finder pattern -->
  <rect x="3" y="20" width="9" height="9" fill="#000"/>
  <rect x="4" y="21" width="7" height="7" fill="#fff"/>
  <rect x="5.5" y="22.5" width="4" height="4" fill="#000"/>
  <!-- Data modules -->
  <rect x="14" y="3" width="2" height="2" fill="#000"/>
  <rect x="14" y="7" width="2" height="2" fill="#000"/>
  <rect x="14" y="11" width="2" height="2" fill="#000"/>
  <rect x="3" y="14" width="2" height="2" fill="#000"/>
  <rect x="7" y="14" width="2" height="2" fill="#000"/>
  <rect x="11" y="14" width="2" height="2" fill="#000"/>
  <rect x="17" y="14" width="2" height="2" fill="#000"/>
  <rect x="21" y="14" width="2" height="2" fill="#000"/>
  <rect x="25" y="14" width="2" height="2" fill="#000"/>
  <rect x="14" y="17" width="2" height="2" fill="#000"/>
  <rect x="14" y="21" width="2" height="2" fill="#000"/>
  <rect x="14" y="25" width="2" height="2" fill="#000"/>
  <rect x="17" y="17" width="2" height="2" fill="#000"/>
  <rect x="21" y="17" width="2" height="2" fill="#000"/>
  <rect x="17" y="21" width="2" height="2" fill="#000"/>
  <rect x="25" y="17" width="2" height="2" fill="#000"/>
  <rect x="21" y="21" width="2" height="2" fill="#000"/>
  <rect x="25" y="21" width="2" height="2" fill="#000"/>
  <rect x="17" y="25" width="2" height="2" fill="#000"/>
  <rect x="21" y="25" width="2" height="2" fill="#000"/>
  <rect x="25" y="25" width="2" height="2" fill="#000"/>
</svg>
