<svg xmlns="http://www.w3.org/2000/svg" viewBox="0 0 32 32" width="32" height="32">
  <rect x="2" y="1" width="28" height="30" rx="2" fill="#4b6a8a" stroke="#2d4a6a" stroke-width="1.5"/>
  <rect x="5" y="4" width="22" height="7" rx="1" fill="#c8dce8" stroke="#2d4a6a" stroke-width="0.5"/>
  <rect x="5" y="14" width="4.5" height="3.5" rx="0.5" fill="#d0d8e0"/>
  <rect x="11.5" y="14" width="4.5" height="3.5" rx="0.5" fill="#d0d8e0"/>
  <rect x="18" y="14" width="4.5" height="3.5" rx="0.5" fill="#d0d8e0"/>
  <rect x="24.5" y="14" width="2.5" height="3.5" rx="0.5" fill="#6a8ab0"/>
  <rect x="5" y="19.5" width="4.5" height="3.5" rx="0.5" fill="#d0d8e0"/>
  <rect x="11.5" y="19.5" width="4.5" height="3.5" rx="0.5" fill="#d0d8e0"/>
  <rect x="18" y="19.5" width="4.5" height="3.5" rx="0.5" fill="#d0d8e0"/>
  <rect x="24.5" y="19.5" width="2.5" height="3.5" rx="0.5" fill="#6a8ab0"/>
  <rect x="5" y="25" width="4.5" height="3.5" rx="0.5" fill="#d0d8e0"/>
  <rect x="11.5" y="25" width="4.5" height="3.5" rx="0.5" fill="#d0d8e0"/>
  <rect x="18" y="25" width="4.5" height="3.5" rx="0.5" fill="#d0d8e0"/>
  <rect x="24.5" y="25" width="2.5" height="3.5" rx="0.5" fill="#6a8ab0"/>
</svg>
