<svg xmlns="http://www.w3.org/2000/svg" viewBox="0 0 32 32" width="32" height="32">
  <!-- Color wheel background -->
  <circle cx="16" cy="16" r="13" fill="none" stroke="#555" stroke-width="0.5"/>
  <!-- Color wheel segments (12 hue slices) -->
  <path d="M16,16 L16,3 A13,13 0 0,1 27.26,9.5 Z" fill="#ff0000"/>
  <path d="M16,16 L27.26,9.5 A13,13 0 0,1 29,16 Z" fill="#ff8000"/>
  <path d="M16,16 L29,16 A13,13 0 0,1 27.26,22.5 Z" fill="#ffff00"/>
  <path d="M16,16 L27.26,22.5 A13,13 0 0,1 22.5,27.26 Z" fill="#80ff00"/>
  <path d="M16,16 L22.5,27.26 A13,13 0 0,1 16,29 Z" fill="#00ff00"/>
  <path d="M16,16 L16,29 A13,13 0 0,1 9.5,27.26 Z" fill="#00ff80"/>
  <path d="M16,16 L9.5,27.26 A13,13 0 0,1 3,16 Z" fill="#00ffff"/>
  <path d="M16,16 L3,16 A13,13 0 0,1 4.74,9.5 Z" fill="#0080ff"/>
  <path d="M16,16 L4.74,9.5 A13,13 0 0,1 9.5,4.74 Z" fill="#0000ff"/>
  <path d="M16,16 L9.5,4.74 A13,13 0 0,1 16,3 Z" fill="#8000ff"/>
  <!-- Inner white circle for contrast -->
  <circle cx="16" cy="16" r="5" fill="#fff" stroke="#888" stroke-width="0.5"/>
  <!-- Crosshair in center -->
  <line x1="16" y1="12.5" x2="16" y2="19.5" stroke="#333" stroke-width="0.8"/>
  <line x1="12.5" y1="16" x2="19.5" y2="16" stroke="#333" stroke-width="0.8"/>
  <!-- Outer ring -->
  <circle cx="16" cy="16" r="13" fill="none" stroke="#444" stroke-width="0.8"/>
</svg>
