<svg xmlns="http://www.w3.org/2000/svg" viewBox="0 0 48 48">
  <!-- Database cylinder base -->
  <ellipse cx="24" cy="38" rx="16" ry="5" fill="#3a7bd5" opacity="0.6"/>
  <rect x="8" y="14" width="32" height="24" fill="#4a8fe7" rx="0"/>
  <ellipse cx="24" cy="14" rx="16" ry="5" fill="#5da2f5"/>
  <ellipse cx="24" cy="38" rx="16" ry="5" fill="#3a7bd5"/>
  <!-- Middle ring -->
  <ellipse cx="24" cy="26" rx="16" ry="4" fill="none" stroke="#2a5faa" stroke-width="0.8" opacity="0.5"/>
  <!-- Data rows -->
  <rect x="13" y="17" width="8" height="2" rx="1" fill="#fff" opacity="0.85"/>
  <rect x="23" y="17" width="12" height="2" rx="1" fill="#fff" opacity="0.5"/>
  <rect x="13" y="21" width="5" height="2" rx="1" fill="#fff" opacity="0.85"/>
  <rect x="20" y="21" width="15" height="2" rx="1" fill="#fff" opacity="0.5"/>
  <rect x="13" y="29" width="10" height="2" rx="1" fill="#fff" opacity="0.85"/>
  <rect x="25" y="29" width="8" height="2" rx="1" fill="#fff" opacity="0.5"/>
  <rect x="13" y="33" width="6" height="2" rx="1" fill="#fff" opacity="0.85"/>
  <rect x="21" y="33" width="12" height="2" rx="1" fill="#fff" opacity="0.5"/>
  <!-- Dice/shuffle element -->
  <rect x="30" y="2" width="16" height="16" rx="3" fill="#e8453c" stroke="#b5342d" stroke-width="1"/>
  <circle cx="34" cy="6" r="1.5" fill="#fff"/>
  <circle cx="42" cy="6" r="1.5" fill="#fff"/>
  <circle cx="38" cy="10" r="1.5" fill="#fff"/>
  <circle cx="34" cy="14" r="1.5" fill="#fff"/>
  <circle cx="42" cy="14" r="1.5" fill="#fff"/>
  <!-- Shuffle arrows -->
  <path d="M3 6 L9 6 L9 3 L14 7.5 L9 12 L9 9 L3 9 Z" fill="#f0a030" stroke="#c0801a" stroke-width="0.5"/>
</svg>
