<svg xmlns="http://www.w3.org/2000/svg" viewBox="0 0 32 32" width="32" height="32">
  <!-- Classic space invader alien silhouette -->
  <rect x="4" y="4" width="3" height="3" fill="#4f4"/>
  <rect x="25" y="4" width="3" height="3" fill="#4f4"/>
  <rect x="7" y="7" width="3" height="3" fill="#4f4"/>
  <rect x="22" y="7" width="3" height="3" fill="#4f4"/>
  <rect x="4" y="10" width="24" height="3" fill="#4f4"/>
  <rect x="4" y="13" width="6" height="3" fill="#4f4"/>
  <rect x="13" y="13" width="6" height="3" fill="#4f4"/>
  <rect x="22" y="13" width="6" height="3" fill="#4f4"/>
  <rect x="1" y="16" width="30" height="3" fill="#4f4"/>
  <rect x="1" y="19" width="3" height="3" fill="#4f4"/>
  <rect x="4" y="19" width="3" height="3" fill="#4f4"/>
  <rect x="25" y="19" width="3" height="3" fill="#4f4"/>
  <rect x="28" y="19" width="3" height="3" fill="#4f4"/>
  <rect x="7" y="22" width="3" height="3" fill="#4f4"/>
  <rect x="22" y="22" width="3" height="3" fill="#4f4"/>
  <!-- Eyes -->
  <rect x="10" y="13" width="3" height="3" fill="#000"/>
  <rect x="19" y="13" width="3" height="3" fill="#000"/>
</svg>
