<svg xmlns="http://www.w3.org/2000/svg" viewBox="0 0 48 48" width="48" height="48">
  <g fill="#4b5563" stroke="#374151" stroke-width="1.5">
    <path d="M24 6 L26.5 10.5 L31.5 10.5 L28 14 L29.5 19 L24 16.5 L18.5 19 L20 14 L16.5 10.5 L21.5 10.5 Z"/>
    <circle cx="24" cy="24" r="10" fill="none" stroke-width="4"/>
    <circle cx="24" cy="24" r="5" fill="#9ca3af"/>
    <rect x="22" y="2" width="4" height="6" rx="1"/>
    <rect x="22" y="40" width="4" height="6" rx="1"/>
    <rect x="2" y="22" width="6" height="4" rx="1"/>
    <rect x="40" y="22" width="6" height="4" rx="1"/>
    <rect x="7.3" y="7.3" width="5" height="3.5" rx="1" transform="rotate(45 9.8 9.05)"/>
    <rect x="35.7" y="37.2" width="5" height="3.5" rx="1" transform="rotate(45 38.2 38.95)"/>
    <rect x="7.3" y="37.2" width="5" height="3.5" rx="1" transform="rotate(-45 9.8 38.95)"/>
    <rect x="35.7" y="7.3" width="5" height="3.5" rx="1" transform="rotate(-45 38.2 9.05)"/>
  </g>
</svg>
